<?xml version="1.0" standalone="no"?><!DOCTYPE svg PUBLIC "-//W3C//DTD SVG 1.1//EN" "http://www.w3.org/Graphics/SVG/1.1/DTD/svg11.dtd"><svg t="1561013689103" class="icon" style="" viewBox="0 0 1024 1024" version="1.1" xmlns="http://www.w3.org/2000/svg" p-id="4028" xmlns:xlink="http://www.w3.org/1999/xlink" width="48" height="48"><defs><style type="text/css"></style></defs><path d="M34.4 873.6a464 121.6 0 1 0 928 0 464 121.6 0 1 0-928 0Z" fill="#DAE9FF" p-id="4029"></path><path d="M806.4 856.8h-544c-52.8 0-96-43.2-96-96V216c0-52.8 43.2-96 96-96h544c52.8 0 96 43.2 96 96v544.8c0 52.8-43.2 96-96 96z" fill="#1D85DB" p-id="4030"></path><path d="M806.4 841.6h-544c-52.8 0-96-43.2-96-96V200c0-52.8 43.2-96 96-96h544c52.8 0 96 43.2 96 96v545.6c0 52.8-43.2 96-96 96z" fill="#459DF5" p-id="4031" data-spm-anchor-id="a313x.7781069.0.i4" class="selected"></path><path d="M736.8 388H340c-16.8 0-30.4-13.6-30.4-30.4 0-16.8 13.6-30.4 30.4-30.4h397.6c16.8 0 30.4 13.6 30.4 30.4-0.8 16.8-14.4 30.4-31.2 30.4z" fill="#B8FAFF" p-id="4032"></path><path d="M732 381.6h-400c-16.8 0-30.4-13.6-30.4-30.4v-0.8c0-16.8 13.6-30.4 30.4-30.4h400c16.8 0 30.4 13.6 30.4 30.4v1.6c0 16-13.6 29.6-30.4 29.6z" fill="#FFFFFF" p-id="4033"></path><path d="M736.8 528.8H340c-16.8 0-30.4-13.6-30.4-30.4 0-16.8 13.6-30.4 30.4-30.4h397.6c16.8 0 30.4 13.6 30.4 30.4-0.8 16.8-14.4 30.4-31.2 30.4z" fill="#B8FAFF" p-id="4034"></path><path d="M725.6 521.6H332c-16.8 0-30.4-13.6-30.4-30.4 0-16.8 13.6-30.4 30.4-30.4h393.6c16.8 0 30.4 13.6 30.4 30.4 0 17.6-13.6 30.4-30.4 30.4z" fill="#FFFFFF" p-id="4035"></path><path d="M736.8 670.4H340c-16.8 0-30.4-13.6-30.4-30.4 0-16.8 13.6-30.4 30.4-30.4h397.6c16.8 0 30.4 13.6 30.4 30.4-0.8 16.8-14.4 30.4-31.2 30.4z" fill="#B8FAFF" p-id="4036"></path><path d="M725.6 663.2H332c-16.8 0-30.4-13.6-30.4-30.4 0-16.8 13.6-30.4 30.4-30.4h393.6c16.8 0 30.4 13.6 30.4 30.4 0 16.8-13.6 30.4-30.4 30.4z" fill="#FFFFFF" p-id="4037"></path><path d="M359.2 104c-4 7.2-6.4 15.2-6.4 24v0.8c0 28 22.4 50.4 50.4 50.4h290.4c28 0 50.4-22.4 50.4-50.4V128c0-8.8-2.4-16.8-6.4-24H359.2z" fill="#1D85DB" p-id="4038"></path><path d="M656.8 168H412c-33.6 0-60.8-27.2-60.8-60.8 0-33.6 27.2-60.8 60.8-60.8h244.8c33.6 0 60.8 27.2 60.8 60.8 0 33.6-27.2 60.8-60.8 60.8z" fill="#B0DFFF" p-id="4039"></path></svg>